<svg viewBox="0 0 32 32" xmlns="http://www.w3.org/2000/svg"><g data-name="Layer 60"><circle cx="16" cy="16" r="1" fill="#ffffff" class="fill-101820"></circle><path d="M16 18a2 2 0 1 1 2-2 2 2 0 0 1-2 2Zm0-2Z" fill="#ffffff" class="fill-101820"></path><circle cx="16" cy="5" r="1" fill="#ffffff" class="fill-101820"></circle><path d="M16 7a2 2 0 1 1 2-2 2 2 0 0 1-2 2Zm0-2Z" fill="#ffffff" class="fill-101820"></path><circle cx="16" cy="27" r="1" fill="#ffffff" class="fill-101820"></circle><path d="M16 29a2 2 0 1 1 2-2 2 2 0 0 1-2 2Zm0-2Z" fill="#ffffff" class="fill-101820"></path></g></svg>